<svg t="1744860723950" class="icon" viewBox="0 0 1024 1024" version="1.1" xmlns="http://www.w3.org/2000/svg" p-id="28410" width="200" height="200"><path d="M867.392 104.192l-83.392 47.616 57.728 101.056V448c0 21.504 7.232 44.352 20.288 64l2.496 3.392-2.304 3.072c-11.52 16.832-18.56 36.032-20.16 54.784l-0.32 8v189.568l-57.728 101.44 83.456 47.488 64-112.512a48 48 0 0 0 5.824-17.536l0.448-6.208v-202.24c0-4.864 9.664-17.536 17.92-17.6 64-0.32 63.552-96.256-0.448-96-6.528 0-14.72-9.984-16.896-16.64L937.6 448V240.192a48 48 0 0 0-6.272-23.808l-64-112.192z m-717.056 0l83.328 47.616L176 252.8l0.064 195.968c0 21.184-7.424 43.264-20.608 62.08l-1.6 2.048 1.6 2.112c11.52 16.896 18.688 36.16 20.288 54.912l0.32 8v192.832l57.728 101.44-83.456 47.488-64-112.512a48 48 0 0 1-5.888-17.536l-0.384-6.208v-205.44c0-4.928-9.984-17.984-18.176-18.048-64-0.32-63.552-96.256 0.448-96 7.68 0 15.232-8.064 17.216-12.992l0.512-2.176v-208.64a48 48 0 0 1 6.336-23.808l64-112.192zM626.88 320l64 59.2L568.96 510.848l125.44 133.568-63.488 59.584-121.152-129.088L390.4 704l-64-59.2 123.584-133.568L326.4 379.584 389.888 320l119.296 127.168L626.944 320z" fill="#0070FF" p-id="28411"></path></svg>