<svg t="1743574173683" class="icon" viewBox="0 0 1024 1024" version="1.1" xmlns="http://www.w3.org/2000/svg" p-id="17390" width="200" height="200"><path d="M735.21 504.88h59.61v29.8h-59.61z" fill="#3F76FC" p-id="17391"></path><path d="M940.82 146.73a64.066 64.066 0 0 0-45.28-18.74H127.12c-35.37 0-64.03 28.64-64.03 63.97v639.71a63.95 63.95 0 0 0 18.76 45.24 64.039 64.039 0 0 0 45.28 18.73h768.42c16.98 0 33.27-6.74 45.28-18.73a63.95 63.95 0 0 0 18.76-45.24V191.96a63.961 63.961 0 0 0-18.77-45.23z m-173.35 61.09c0-4.25 1.68-8.33 4.69-11.34 3-3.01 7.07-4.7 11.32-4.7h32.02c4.25 0 8.32 1.69 11.32 4.7 3 3.01 4.69 7.09 4.69 11.34v32.08c0 4.26-1.69 8.34-4.69 11.35-3 3.01-7.08 4.7-11.32 4.7h-32.02c-4.25 0-8.32-1.69-11.32-4.7a16.036 16.036 0 0 1-4.69-11.35v-32.08zM332.88 644.48h-44.71v-78.32h-59.6v78.32h-44.7V456.51h44.7v62.65h59.6v-62.65h44.71v187.97zM496.79 503.5h-44.7v140.98h-44.7V503.5h-44.7v-46.99H496.8v46.99z m14.54-263.59v-32.08c0-4.25 1.69-8.33 4.69-11.34 3-3.01 7.07-4.7 11.32-4.7h32.02c4.25 0 8.32 1.69 11.32 4.7 3 3.01 4.69 7.09 4.69 11.34v32.08c0 4.26-1.69 8.34-4.69 11.35-3 3.01-7.07 4.7-11.32 4.7h-32.02c-4.25 0-8.32-1.69-11.32-4.7-3-3.01-4.69-7.1-4.69-11.35zM660.71 503.5h-44.7v140.98h-44.7V503.5h-44.7v-46.99h134.11v46.99z m-5.3-247.55c-4.24 0-8.32-1.69-11.32-4.7-3-3.01-4.69-7.09-4.69-11.35v-32.08c0-4.25 1.69-8.33 4.69-11.34 3-3.01 7.08-4.7 11.32-4.7h32.02c4.24 0 8.32 1.69 11.32 4.7 3 3.01 4.69 7.09 4.69 11.34v32.08c0 4.26-1.69 8.34-4.69 11.35-3 3.01-7.08 4.7-11.32 4.7h-32.02z m184.12 278.88c0 26.63-19.37 46.99-44.7 46.99h-59.61v62.65h-44.7V456.51h104.31c25.33 0 44.7 20.36 44.7 46.99v31.33z" fill="#3F76FC" p-id="17392"></path></svg>