<svg t="1743574173683" class="icon" viewBox="0 0 1024 1024" version="1.1" xmlns="http://www.w3.org/2000/svg" p-id="17390" width="200" height="200">
  <!-- 主体代码符号 -->
  <path d="M939.8 147H84.2C59.5 147 39.6 167 39.6 191.7v640.6c0 24.7 19.9 44.7 44.6 44.7h855.6c24.7 0 44.6-20 44.6-44.7V191.7c0-24.7-19.9-44.7-44.6-44.7z" fill="#E9F2FF" p-id="17391"></path>
  <path d="M939.8 877H84.2c-24.7 0-44.6-20-44.6-44.7V191.7c0-24.7 19.9-44.7 44.6-44.7h855.6c24.7 0 44.6 20 44.6 44.7v640.6c0 24.7-19.9 44.7-44.6 44.7zM84.2 187c-2.6 0-4.6 2.1-4.6 4.7v640.6c0 2.6 2 4.7 4.6 4.7h855.6c2.6 0 4.6-2.1 4.6-4.7V191.7c0-2.6-2-4.7-4.6-4.7H84.2z" fill="#3F76FC" p-id="17392"></path>
  <!-- 左括号 < -->
  <path d="M381.4 322.4L216.9 486.9c-8.8 8.8-8.8 23 0 31.8l164.5 164.5c8.8 8.8 23 8.8 31.8 0s8.8-23 0-31.8L263.6 502.8l149.6-148.6c8.8-8.8 8.8-23 0-31.8-8.8-8.8-23-8.8-31.8 0z" fill="#3F76FC" p-id="17393"></path>
  <!-- 右括号 > -->
  <path d="M642.6 322.4c-8.8-8.8-23-8.8-31.8 0s-8.8 23 0 31.8l149.6 148.6-149.6 148.6c-8.8 8.8-8.8 23 0 31.8 8.8 8.8 23 8.8 31.8 0l164.5-164.5c8.8-8.8 8.8-23 0-31.8L642.6 322.4z" fill="#3F76FC" p-id="17394"></path>
  <!-- 斜杠 / -->
  <path d="M570.9 244.1c-11.6-3.9-24.2 2.3-28.1 13.9l-119.6 356.5c-3.9 11.6 2.3 24.2 13.9 28.1 2.3 0.8 4.7 1.2 7.1 1.2 9.3 0 18-5.8 21.1-15l119.6-356.5c3.8-11.7-2.4-24.3-14-28.2z" fill="#3F76FC" p-id="17395"></path>
  <!-- 行号装饰 -->
  <path d="M164.2 342h40c4.4 0 8-3.6 8-8s-3.6-8-8-8h-40c-4.4 0-8 3.6-8 8s3.6 8 8 8z" fill="#3F76FC" p-id="17396"></path>
  <path d="M164.2 422h40c4.4 0 8-3.6 8-8s-3.6-8-8-8h-40c-4.4 0-8 3.6-8 8s3.6 8 8 8z" fill="#3F76FC" p-id="17397"></path>
  <path d="M164.2 502h40c4.4 0 8-3.6 8-8s-3.6-8-8-8h-40c-4.4 0-8 3.6-8 8s3.6 8 8 8z" fill="#3F76FC" p-id="17398"></path>
  <path d="M164.2 582h40c4.4 0 8-3.6 8-8s-3.6-8-8-8h-40c-4.4 0-8 3.6-8 8s3.6 8 8 8z" fill="#3F76FC" p-id="17399"></path>
  <path d="M164.2 662h40c4.4 0 8-3.6 8-8s-3.6-8-8-8h-40c-4.4 0-8 3.6-8 8s3.6 8 8 8z" fill="#3F76FC" p-id="17400"></path>
</svg> 