<svg t="1745917426195" class="icon" viewBox="0 0 1024 1024" version="1.1" xmlns="http://www.w3.org/2000/svg" p-id="29912" width="200" height="200"><path d="M509.875519 509.875519m-503.502075 0a503.502075 503.502075 0 1 0 1007.004149 0 503.502075 503.502075 0 1 0-1007.004149 0Z" fill="#00CCC6" p-id="29913"></path><path d="M476.351203 190.795419h80.203419v226.643917H476.351203z" fill="#FFFFFF" p-id="29914"></path><path d="M516.452913 817.219983c-163.381112 0-296.301411-132.924548-296.301411-296.305659a296.365145 296.365145 0 0 1 154.810954-260.406175l38.351137 70.439303c-69.67449 37.938988-112.962921 110.727967-112.962921 189.962623 0 119.162158 96.944332 216.102241 216.102241 216.10224 119.162158 0 216.10649-96.940083 216.106489-216.10224a216.195718 216.195718 0 0 0-112.958672-189.958374l38.346888-70.443552a296.339651 296.339651 0 0 1 154.815204 260.401926c0 163.385361-132.924548 296.309909-296.309909 296.309908z" fill="#FFFFFF" p-id="29915"></path></svg>