<svg t="1744856428007" class="icon" viewBox="0 0 1024 1024" version="1.1" xmlns="http://www.w3.org/2000/svg" p-id="10452" width="200" height="200"><path d="M421.339576 705.267961c9.213388 5.118549 19.655228 7.780194 30.199438 7.831379 12.949929 0 25.592744-3.685355 36.495254-10.748952l194.7096-128.475578c21.549091-14.280751 34.396649-38.491488 34.140721-64.340159a74.065402 74.065402 0 0 0-33.065826-62.651039l-196.552277-128.526762a64.033047 64.033047 0 0 0-66.029281-3.327057c-23.647696 13.820082-37.877262 39.515197-37.007109 66.95062v257.10471c-0.511855 27.128309 13.666526 52.465126 37.10948 66.182838z" fill="#10C287" p-id="10453"></path><path d="M150.824267 874.640743A511.803704 511.803704 0 0 0 936.521522 226.018228 511.803704 511.803704 0 1 0 150.773081 874.640743z m-65.670982-363.416971a429.702179 429.702179 0 1 1 429.087953 429.650994 430.162849 430.162849 0 0 1-429.087953-429.650994z" fill="#10C287" p-id="10454"></path></svg>